<svg version="1" xmlns="http://www.w3.org/2000/svg" viewBox="0 0 300 300"><path d="M263 7c-4-5-9-7-15-7h-20c-3 0-5 2-5 5s2 5 5 5h21c5 0 9 5 8 10l-42 171c-1 4-4 6-8 6h-67l-3 2-79 89c-3 2-6 3-9 2s-6-5-6-8V18c0-4 4-8 9-8h155c3 0 5-2 5-5s-2-5-5-5H52C42 0 33 8 33 18v264c0 7 5 15 12 17s15 0 20-5l77-87h65c8 0 16-6 17-14l42-171c1-6 0-11-3-15z"/><path d="M232 26H65c-3 0-5 2-5 5v158a5 5 0 1 0 9 0V36h157l-11 47h-75a18 18 0 0 0 0 35h66l-13 53h-59c-4 0-10 2-13 6l-52 59v-26a5 5 0 1 0-9 0v38c0 4 5 7 8 3l60-68 6-2h63c2 0 4-2 5-4l15-62c0-3-2-6-5-6h-72c-5 0-9-4-9-8s4-8 9-8h78c2 0 5-2 5-4l14-57c0-3-2-6-5-6z"/></svg>