<svg version="1" xmlns="http://www.w3.org/2000/svg" viewBox="0 0 512 512"><path d="M448 12c-6-8-15-12-24-12h-35a8 8 0 1 0 0 17h35c9 0 16 8 14 17l-71 292c-2 6-7 10-14 10H239l-6 3L98 491c-4 4-10 6-15 4s-9-8-9-13V30c0-7 6-13 14-13h265a8 8 0 1 0 0-17H88C71 0 57 14 57 30v452c0 12 8 24 20 28s25 1 34-8l132-149h110c14 0 27-10 30-23l71-292c2-10 0-19-6-26z"/><path d="M396 44H110c-5 0-8 4-8 9v269a8 8 0 1 0 16 0V61h267l-19 81H238a30 30 0 0 0 0 60h113l-22 90H229c-8 0-17 4-22 10l-89 100v-44a8 8 0 1 0-16 0v65c0 8 9 12 14 6l103-116c3-3 7-4 10-4h107c4 0 7-3 8-7l26-106c1-5-3-10-8-10H238a14 14 0 0 1 0-28h134c4 0 8-2 8-6l24-98c1-5-3-10-8-10z"/></svg>